<?xml version="1.0" encoding="UTF-8"?>
<svg xmlns="http://www.w3.org/2000/svg" viewBox="0 0 568.06 492.42">
	<defs>
		<style>
			.cls-1 {
			fill: #fbb03b;
			}
		</style>
	</defs>
	<g id="Layer_1">
		<g>
			<polygon class="cls-1" points="142.56 245.5 283.72 1 424.88 245.5 142.56 245.5"/>
			<path d="M283.72,2l140.3,243H143.42L283.72,2M283.72,0l-142.03,246h284.06L283.72,0h0Z"/>
		</g>
	</g>
	<g id="Layer_2">
		<g>
			<polygon class="cls-1" points=".87 491.92 142.03 247.42 283.19 491.92 .87 491.92"/>
			<path d="M142.03,248.42l140.3,243H1.73l140.3-243M142.03,246.42L0,492.42h284.06l-142.03-246h0Z"/>
		</g>
	</g>
	<g id="Layer_3">
		<g>
			<polygon class="cls-1" points="284.87 491.92 426.03 247.42 567.19 491.92 284.87 491.92"/>
			<path d="M426.03,248.42l140.3,243h-280.59l140.3-243M426.03,246.42l-142.03,246h284.06l-142.03-246h0Z"/>
		</g>
	</g>
</svg>